<?xml version="1.0" standalone="no"?>
<!DOCTYPE svg PUBLIC "-//W3C//DTD SVG 20010904//EN"
 "http://www.w3.org/TR/2001/REC-SVG-20010904/DTD/svg10.dtd">
<svg version="1.0" xmlns="http://www.w3.org/2000/svg"
 width="500.000000pt" height="500.000000pt" viewBox="0 0 500.000000 500.000000"
 preserveAspectRatio="xMidYMid meet">
<metadata>
Created by potrace 1.14, written by Peter Selinger 2001-2017
</metadata>
<g transform="translate(0.000000,500.000000) scale(0.100000,-0.100000)"
fill="#000000" stroke="none">
<path d="M0 2500 l0 -2500 2500 0 2500 0 0 2500 0 2500 -2500 0 -2500 0 0
-2500z m710 170 l0 -680 360 0 360 0 0 -135 0 -135 -525 0 -525 0 0 815 0 815
165 0 165 0 0 -680z m1557 105 c111 -313 205 -576 210 -583 5 -8 83 202 213
573 l205 585 223 0 222 0 0 -815 0 -815 -170 0 -170 0 0 211 c0 116 7 365 16
554 8 189 14 361 12 382 -2 31 -41 -67 -218 -554 l-214 -593 -117 0 -116 0
-214 593 c-176 487 -215 585 -217 554 -2 -21 4 -193 12 -382 9 -189 16 -438
16 -554 l0 -211 -170 0 -170 0 0 815 0 815 223 -2 222 -3 202 -570z m2363 -17
c0 -473 -3 -607 -14 -660 -42 -194 -180 -332 -386 -384 -89 -22 -291 -15 -371
14 -200 71 -301 199 -325 411 l-7 61 171 0 170 0 7 -47 c17 -120 69 -172 179
-180 79 -7 123 7 170 54 66 66 66 66 66 730 l0 593 170 0 170 0 0 -592z"/>
</g>
</svg>
