<?xml version="1.0" standalone="no"?>
<svg xmlns:xlink="http://www.w3.org/1999/xlink" id="wave" style="transform:rotate(0deg); transition: 0.3s" viewBox="0 0 1440 260" version="1.1" xmlns="http://www.w3.org/2000/svg"><defs><linearGradient id="sw-gradient-0" x1="0" x2="0" y1="1" y2="0"><stop stop-color="rgba(255, 255, 255, 1)" offset="0%"/><stop stop-color="rgba(255, 255, 255, 1)" offset="100%"/></linearGradient></defs><path style="transform:translate(0, 0px); opacity:1" fill="url(#sw-gradient-0)" d="M0,130L80,112.7C160,95,320,61,480,73.7C640,87,800,147,960,177.7C1120,208,1280,208,1440,199.3C1600,191,1760,173,1920,151.7C2080,130,2240,104,2400,112.7C2560,121,2720,165,2880,160.3C3040,156,3200,104,3360,99.7C3520,95,3680,139,3840,130C4000,121,4160,61,4320,43.3C4480,26,4640,52,4800,78C4960,104,5120,130,5280,117C5440,104,5600,52,5760,56.3C5920,61,6080,121,6240,134.3C6400,147,6560,113,6720,108.3C6880,104,7040,130,7200,125.7C7360,121,7520,87,7680,73.7C7840,61,8000,69,8160,99.7C8320,130,8480,182,8640,182C8800,182,8960,130,9120,108.3C9280,87,9440,95,9600,82.3C9760,69,9920,35,10080,47.7C10240,61,10400,121,10560,143C10720,165,10880,147,11040,138.7C11200,130,11360,130,11440,130L11520,130L11520,260L11440,260C11360,260,11200,260,11040,260C10880,260,10720,260,10560,260C10400,260,10240,260,10080,260C9920,260,9760,260,9600,260C9440,260,9280,260,9120,260C8960,260,8800,260,8640,260C8480,260,8320,260,8160,260C8000,260,7840,260,7680,260C7520,260,7360,260,7200,260C7040,260,6880,260,6720,260C6560,260,6400,260,6240,260C6080,260,5920,260,5760,260C5600,260,5440,260,5280,260C5120,260,4960,260,4800,260C4640,260,4480,260,4320,260C4160,260,4000,260,3840,260C3680,260,3520,260,3360,260C3200,260,3040,260,2880,260C2720,260,2560,260,2400,260C2240,260,2080,260,1920,260C1760,260,1600,260,1440,260C1280,260,1120,260,960,260C800,260,640,260,480,260C320,260,160,260,80,260L0,260Z"/></svg>
